# xmcd CD database file
#
# Track frame offsets:
#	150
#	9239
#	18520
#	27927
#	39515
#	49050
#	58425
#	70595
#	81472
#	91169
#	101855
#	116771
#	127984
#	140918
#	152988
#	163128
#	173810
#	185344
#
# Disc length: 2617 seconds
#
# Revision: 0
# Processed by: cddbd v1.5.2PL0 Copyright (c) Steve Scherf et al.
# Submitted via: Feurio! 1.68 - http://www.feurio.com
#
DISCID=f90a3712
DTITLE=Jimmy Edwards - Love Bug Crawl
DYEAR=2010
DGENRE=
TTITLE0=Love Bug Crawl (1)
TTITLE1=Do That Again
TTITLE2=Love Bug Crawl (2)
TTITLE3=My Honey
TTITLE4=Your Love Is Good Love
TTITLE5=Golden Ruby Blue
TTITLE6=Live And Let Live
TTITLE7=Rosie Lee
TTITLE8=Honey Lovin'
TTITLE9=Sorry I Lied
TTITLE10=What Do You Want From Me?
TTITLE11=The Way To My Heart (1)
TTITLE12=Recipe Of Love
TTITLE13=Wedding Band (2)
TTITLE14=Silver Slippers
TTITLE15=A Favour For A Friend
TTITLE16=The Way To My Heart (2)
TTITLE17=Wedding Band (1)
EXTD=
EXTT0=
EXTT1=
EXTT2=
EXTT3=
EXTT4=
EXTT5=
EXTT6=
EXTT7=
EXTT8=
EXTT9=
EXTT10=
EXTT11=
EXTT12=
EXTT13=
EXTT14=
EXTT15=
EXTT16=
EXTT17=
PLAYORDER=
